<svg width="527" height="50" viewBox="0 0 527 50" fill="none" xmlns="http://www.w3.org/2000/svg">
<rect x="1" y="1" width="525" height="48" rx="24" fill="white" stroke="#0F172A" stroke-width="2"/>
<circle cx="28" cy="25" r="15" fill="#FEFCE8" stroke="#0F172A" stroke-width="2"/>
<path d="M72.7033 32.176H71.5673V17.552H72.7033V32.176ZM68.4313 28.304H61.7113V18.752H62.8313V22.368H67.3113V18.752H68.4313V28.304ZM62.8313 27.28H67.3113V23.376H62.8313V27.28ZM82.6578 18.736V19.744H77.1218V23.008H82.3378V24.016H77.1218V27.408H79.1698C79.9164 27.408 80.6951 27.3867 81.5058 27.344C82.3164 27.2907 83.1538 27.2 84.0178 27.072L84.1458 28.08C83.2818 28.2187 82.4018 28.3147 81.5058 28.368C80.6098 28.4107 79.7351 28.432 78.8818 28.432H75.9858V18.736H82.6578ZM86.5138 23.04H88.9458V24.048H86.5138V32.176H85.3778V17.552H86.5138V23.04ZM97.3003 25.36H90.7083V18.464H97.3003V25.36ZM96.2123 19.456H91.7963V24.368H96.2123V19.456ZM101.796 28.016H100.676V17.552H101.796V28.016ZM93.9723 31.008H102.164V32H92.8363V27.216H93.9723V31.008ZM116.247 26.704C116.844 26.704 117.415 26.7627 117.959 26.88C118.503 26.9973 118.983 27.168 119.399 27.392C119.815 27.616 120.145 27.8933 120.391 28.224C120.636 28.5547 120.759 28.928 120.759 29.344V29.92C120.759 30.336 120.636 30.7093 120.391 31.04C120.145 31.3707 119.815 31.648 119.399 31.872C118.983 32.096 118.503 32.2667 117.959 32.384C117.415 32.5013 116.844 32.56 116.247 32.56C115.649 32.56 115.079 32.5013 114.535 32.384C113.991 32.2667 113.511 32.096 113.095 31.872C112.679 31.648 112.348 31.3707 112.103 31.04C111.857 30.7093 111.735 30.336 111.735 29.92V29.328C111.735 28.9013 111.857 28.528 112.103 28.208C112.348 27.8773 112.679 27.6 113.095 27.376C113.511 27.152 113.991 26.9867 114.535 26.88C115.079 26.7627 115.649 26.704 116.247 26.704ZM116.247 31.6C116.673 31.6 117.089 31.5627 117.495 31.488C117.911 31.4133 118.279 31.3013 118.599 31.152C118.919 31.0027 119.175 30.8213 119.367 30.608C119.569 30.3947 119.671 30.144 119.671 29.856V29.408C119.671 29.12 119.569 28.8693 119.367 28.656C119.175 28.4427 118.919 28.2613 118.599 28.112C118.279 27.9627 117.911 27.8507 117.495 27.776C117.089 27.7013 116.673 27.664 116.247 27.664C115.82 27.664 115.399 27.7013 114.983 27.776C114.577 27.8507 114.215 27.9627 113.895 28.112C113.575 28.2507 113.313 28.432 113.111 28.656C112.919 28.8693 112.823 29.1147 112.823 29.392V29.856C112.823 30.144 112.919 30.3947 113.111 30.608C113.313 30.8213 113.575 31.0027 113.895 31.152C114.215 31.3013 114.577 31.4133 114.983 31.488C115.399 31.5627 115.82 31.6 116.247 31.6ZM117.463 21.328H119.575V17.552H120.679V26.384H119.575V22.336H117.463V25.76H116.359V17.744H117.463V21.328ZM114.727 25.664C114.375 25.3867 114.049 25.1253 113.751 24.88C113.452 24.6347 113.164 24.3893 112.887 24.144C112.375 23.6747 112.076 23.36 111.991 23.2H111.975C111.921 23.3813 111.639 23.7173 111.127 24.208C111.009 24.3253 110.865 24.464 110.695 24.624C110.535 24.7733 110.359 24.9333 110.167 25.104C109.975 25.264 109.772 25.4347 109.559 25.616C109.345 25.7867 109.137 25.952 108.935 26.112L108.231 25.344C108.636 25.0347 109.036 24.7147 109.431 24.384C109.825 24.0533 110.188 23.7173 110.519 23.376C110.7 23.184 110.844 23.0133 110.951 22.864C111.068 22.704 111.159 22.544 111.223 22.384C111.287 22.2133 111.329 22.032 111.351 21.84C111.383 21.648 111.399 21.424 111.399 21.168V20.416H108.727V19.44H111.399V17.6H112.519V19.44H115.047V20.416H112.519V21.168C112.519 21.4453 112.529 21.6747 112.551 21.856C112.572 22.0373 112.615 22.208 112.679 22.368C112.753 22.5173 112.855 22.6667 112.983 22.816C113.111 22.9653 113.281 23.1413 113.495 23.344C113.74 23.568 114.023 23.8187 114.343 24.096C114.673 24.3627 115.02 24.6293 115.383 24.896L114.727 25.664ZM123.449 27.92C124.26 27.4507 124.959 27.0293 125.545 26.656C126.143 26.2827 126.644 25.936 127.049 25.616C127.455 25.296 127.78 24.992 128.025 24.704C128.271 24.416 128.457 24.1227 128.585 23.824C128.724 23.5253 128.815 23.216 128.857 22.896C128.9 22.5653 128.921 22.1973 128.921 21.792V19.968H123.609V18.944H130.025V21.088H133.849V17.552H134.953V32.176H133.849V26.016H130.281V24.992H133.849V22.112H130.025C130.004 22.784 129.913 23.376 129.753 23.888C129.604 24.4 129.311 24.9013 128.873 25.392C128.447 25.8827 127.844 26.4 127.065 26.944C126.297 27.4773 125.289 28.1067 124.041 28.832L123.449 27.92ZM153.564 26H152.444V22.096H148.908V24.928H142.316V18.384H148.908V21.104H152.444V17.552H153.564V26ZM147.836 19.376H143.388V23.936H147.836V19.376ZM144.156 26.864H153.564V32.288H152.444V27.856H144.156V26.864ZM167.998 32.176H166.862V17.552H167.998V32.176ZM156.718 27.936C157.945 27.232 158.921 26.6293 159.646 26.128C160.372 25.616 160.921 25.1413 161.294 24.704C161.668 24.256 161.908 23.808 162.014 23.36C162.132 22.912 162.19 22.3893 162.19 21.792V19.952H156.878V18.928H163.294V21.808C163.294 22.2987 163.268 22.7413 163.214 23.136C163.161 23.5307 163.054 23.904 162.894 24.256C162.745 24.608 162.532 24.9493 162.254 25.28C161.977 25.6107 161.614 25.9573 161.166 26.32C160.729 26.6827 160.19 27.072 159.55 27.488C158.921 27.8933 158.174 28.3467 157.31 28.848L156.718 27.936Z" fill="#1E293B"/>
</svg>
