<svg width="375" height="60" viewBox="0 0 375 60" fill="none" xmlns="http://www.w3.org/2000/svg">
<mask id="path-1-inside-1_73_703" fill="white">
<path d="M0 0H375V60H0V0Z"/>
</mask>
<path d="M0 0H375V60H0V0Z" fill="white"/>
<path d="M375 59H0V61H375V59Z" fill="#E2E8F0" mask="url(#path-1-inside-1_73_703)"/>
<path d="M30 37.3901C33.8755 29.8648 40.427 17.6762 44.4871 20.2422C49.5622 23.4498 37.1052 33.319 43.103 37.3901C49.1009 41.4612 54.6373 16.5412 60.0815 20.2422C65.5258 23.9432 54.8219 33.6891 59.0665 37.3901C62.4622 40.3509 68.294 29.954 73 21.9763" stroke="#6500C3" stroke-width="15.8161" stroke-linecap="round"/>
<path d="M50.9417 23.7323C51.6752 23.7323 52.3933 24.2241 52.9446 25.1337C53.4923 26.0374 53.8411 27.3074 53.8411 28.7264C53.841 30.1453 53.4923 31.4146 52.9446 32.3182C52.3933 33.2279 51.6753 33.7196 50.9417 33.7196C50.208 33.7196 49.49 33.2279 48.9387 32.3182C48.391 31.4146 48.0423 30.1453 48.0422 28.7264C48.0422 27.3074 48.391 26.0374 48.9387 25.1337C49.49 24.2241 50.2081 23.7324 50.9417 23.7323Z" fill="white" stroke="#0F172A" stroke-width="0.64436"/>
<path d="M52.0688 25.6653C52.4944 25.6653 52.9302 25.9449 53.2759 26.5032C53.6185 27.0567 53.8413 27.8419 53.8413 28.7258C53.8413 29.6098 53.6185 30.3949 53.2759 30.9485C52.9302 31.5069 52.4944 31.7864 52.0688 31.7864C51.6434 31.7862 51.2084 31.5066 50.8628 30.9485C50.5201 30.3949 50.2974 29.6098 50.2974 28.7258C50.2974 27.8419 50.5201 27.0567 50.8628 26.5032C51.2084 25.9451 51.6435 25.6655 52.0688 25.6653Z" fill="#0F172A" stroke="#0F172A" stroke-width="0.64436"/>
<path d="M59.3184 23.7323C60.052 23.7323 60.77 24.2241 61.3213 25.1337C61.869 26.0374 62.2178 27.3074 62.2178 28.7264C62.2177 30.1453 61.869 31.4146 61.3213 32.3182C60.77 33.2279 60.052 33.7196 59.3184 33.7196C58.5848 33.7196 57.8667 33.2279 57.3154 32.3182C56.7677 31.4146 56.419 30.1453 56.4189 28.7264C56.4189 27.3074 56.7677 26.0374 57.3154 25.1337C57.8667 24.2241 58.5848 23.7324 59.3184 23.7323Z" fill="white" stroke="#0F172A" stroke-width="0.64436"/>
<path d="M60.4456 25.6653C60.8711 25.6653 61.3069 25.9449 61.6526 26.5032C61.9952 27.0567 62.218 27.8419 62.218 28.7258C62.218 29.6098 61.9953 30.3949 61.6526 30.9485C61.3069 31.5069 60.8711 31.7864 60.4456 31.7864C60.0201 31.7862 59.5851 31.5066 59.2395 30.9485C58.8968 30.3949 58.6741 29.6098 58.6741 28.7258C58.6741 27.8419 58.8968 27.0567 59.2395 26.5032C59.5851 25.9451 60.0202 25.6655 60.4456 25.6653Z" fill="#0F172A" stroke="#0F172A" stroke-width="0.64436"/>
</svg>
