<svg width="744" height="60" viewBox="0 0 744 60" fill="none" xmlns="http://www.w3.org/2000/svg">
<mask id="path-1-inside-1_73_656" fill="white">
<path d="M0 0H744V60H0V0Z"/>
</mask>
<path d="M0 0H744V60H0V0Z" fill="white"/>
<path d="M744 59H0V61H744V59Z" fill="#E2E8F0" mask="url(#path-1-inside-1_73_656)"/>
<g clip-path="url(#clip0_73_656)">
<path d="M35 38.6756C38.8755 31.1503 45.427 18.9618 49.4871 21.5278C54.5622 24.7353 42.1052 34.6045 48.103 38.6756C54.1009 42.7467 59.6373 17.8268 65.0815 21.5277C70.5258 25.2287 59.8219 34.9746 64.0665 38.6756C67.4622 41.6364 73.294 31.2395 78 23.2619" stroke="#6500C3" stroke-width="15.8161" stroke-linecap="round"/>
<path d="M55.9417 25.0178C56.6752 25.0178 57.3933 25.5096 57.9446 26.4192C58.4923 27.323 58.8411 28.5929 58.8411 30.012C58.841 31.4308 58.4923 32.7001 57.9446 33.6038C57.3933 34.5134 56.6753 35.0051 55.9417 35.0051C55.208 35.0051 54.49 34.5134 53.9387 33.6038C53.391 32.7001 53.0423 31.4308 53.0422 30.012C53.0422 28.5929 53.391 27.323 53.9387 26.4192C54.49 25.5096 55.2081 25.0179 55.9417 25.0178Z" fill="white" stroke="#0F172A" stroke-width="0.64436"/>
<path d="M57.0688 26.9508C57.4944 26.9508 57.9302 27.2304 58.2759 27.7887C58.6185 28.3422 58.8413 29.1274 58.8413 30.0114C58.8413 30.8954 58.6185 31.6805 58.2759 32.234C57.9302 32.7924 57.4944 33.0719 57.0688 33.0719C56.6434 33.0717 56.2084 32.7922 55.8628 32.234C55.5201 31.6805 55.2974 30.8954 55.2974 30.0114C55.2974 29.1274 55.5201 28.3422 55.8628 27.7887C56.2084 27.2306 56.6435 26.951 57.0688 26.9508Z" fill="#0F172A" stroke="#0F172A" stroke-width="0.64436"/>
<path d="M64.3184 25.0178C65.052 25.0178 65.77 25.5096 66.3213 26.4192C66.869 27.323 67.2178 28.5929 67.2178 30.012C67.2177 31.4308 66.869 32.7001 66.3213 33.6038C65.77 34.5134 65.052 35.0051 64.3184 35.0051C63.5848 35.0051 62.8667 34.5134 62.3154 33.6038C61.7677 32.7001 61.419 31.4308 61.4189 30.012C61.4189 28.5929 61.7677 27.323 62.3154 26.4192C62.8667 25.5096 63.5848 25.0179 64.3184 25.0178Z" fill="white" stroke="#0F172A" stroke-width="0.64436"/>
<path d="M65.4456 26.9508C65.8711 26.9508 66.3069 27.2304 66.6526 27.7887C66.9952 28.3422 67.218 29.1274 67.218 30.0114C67.218 30.8954 66.9953 31.6805 66.6526 32.234C66.3069 32.7924 65.8711 33.0719 65.4456 33.0719C65.0201 33.0717 64.5851 32.7922 64.2395 32.234C63.8968 31.6805 63.6741 30.8954 63.6741 30.0114C63.6741 29.1274 63.8968 28.3422 64.2395 27.7887C64.5851 27.2306 65.0202 26.951 65.4456 26.9508Z" fill="#0F172A" stroke="#0F172A" stroke-width="0.64436"/>
<path fill-rule="evenodd" clip-rule="evenodd" d="M164.488 26.3812C166.227 26.3695 167.632 24.9852 167.621 23.2966C167.609 21.5575 166.185 20.1523 164.446 20.164C162.757 20.1753 161.392 21.5993 161.404 23.3384C161.415 25.027 162.799 26.3925 164.488 26.3812Z" fill="#6500C3"/>
<path fill-rule="evenodd" clip-rule="evenodd" d="M167.561 34.5705C167.264 33.5646 166.45 32.3681 164.262 32.3828C162.573 32.3942 161.205 33.7782 161.216 35.4668C161.227 37.0491 162.432 38.3493 163.989 38.4984L164.014 42.2505L164.491 41.9468C166.98 40.3664 168.184 36.6832 167.561 34.5705Z" fill="#6500C3"/>
<path d="M104.33 29.6575C103.643 28.9368 102.787 28.5798 101.763 28.5867C100.398 28.5959 99.4079 28.9439 98.7938 29.6307C98.1797 30.3175 97.8764 31.2049 97.8837 32.2929C97.8904 33.2955 98.1732 34.1043 98.732 34.7193C99.2908 35.3342 100.168 35.6376 101.362 35.6296C101.938 35.6257 102.492 35.5047 103.024 35.2664C103.556 35.0282 104.001 34.6945 104.361 34.2654L104.33 29.6575ZM94.0448 32.4787C94.0358 31.1347 94.2834 29.8851 94.7877 28.7296C95.2919 27.5742 96.0109 26.6307 96.9447 25.8991C97.8996 25.146 99.0061 24.7118 100.264 24.5967C100.904 24.5498 101.587 24.6838 102.315 24.9989C103.063 25.2926 103.728 25.7255 104.308 26.2976L104.265 19.9617L108.645 19.4202L108.767 37.4678C108.77 38.0012 108.581 38.4611 108.2 38.8477C107.819 39.2556 107.351 39.4614 106.796 39.4651L104.396 39.4813L104.384 37.6253C103.897 38.2259 103.292 38.7207 102.57 39.1095C101.868 39.4983 101.166 39.695 100.462 39.6997C99.2029 39.7082 98.0807 39.3851 97.095 38.7304C96.1307 38.0968 95.3782 37.2379 94.8376 36.1535C94.3181 35.0476 94.0539 33.8227 94.0448 32.4787ZM118.066 27.9331C117.106 27.9396 116.298 28.3183 115.641 29.0694C115.006 29.8204 114.693 30.8252 114.702 32.0838C114.709 33.2358 114.982 34.13 115.52 34.7664C116.079 35.4026 116.785 35.7179 117.638 35.7121C118.598 35.7057 119.396 35.3377 120.031 34.608C120.666 33.8784 120.979 32.8736 120.971 31.5936C120.963 30.4203 120.679 29.5156 120.12 28.8793C119.583 28.2429 118.898 27.9275 118.066 27.9331ZM110.959 32.365C110.949 30.829 111.228 29.4724 111.796 28.2953C112.386 27.1179 113.19 26.1738 114.209 25.463C115.228 24.7521 116.388 24.2963 117.688 24.0956C118.114 24.0287 118.509 23.994 118.871 23.9916C120.109 23.9833 121.22 24.2531 122.205 24.8012C123.211 25.3491 124.006 26.1651 124.589 27.2492C125.173 28.3333 125.47 29.6647 125.48 31.2433C125.492 32.9713 125.15 34.4669 124.454 35.7303C123.78 36.9722 122.848 37.9172 121.657 38.5652C120.489 39.2344 119.2 39.5737 117.792 39.5832C116.491 39.592 115.326 39.3118 114.298 38.7427C113.271 38.1949 112.455 37.379 111.85 36.2951C111.267 35.211 110.97 33.9009 110.959 32.365ZM138.691 24.0503L138.778 37.042C138.782 37.6394 138.572 38.1528 138.149 38.5823C137.725 39.0332 137.204 39.2607 136.585 39.2648L134.665 39.2777L134.567 24.6861L138.691 24.0503ZM134.05 19.1534C134.044 18.3428 134.349 17.6047 134.963 16.9392C135.577 16.2738 136.279 15.9384 137.068 15.9331C137.666 15.929 138.158 16.1284 138.544 16.5311C138.952 16.9337 139.159 17.455 139.163 18.095C139.168 18.927 138.864 19.6651 138.25 20.3092C137.635 20.9534 136.923 21.2781 136.112 21.2836C135.536 21.2875 135.044 21.0881 134.636 20.6855C134.25 20.2828 134.054 19.7721 134.05 19.1534ZM153.338 38.1282C152.828 38.3663 151.966 38.6281 150.752 38.9136L149.985 39.1107C149.836 39.1544 149.569 39.1775 149.185 39.1801C148.716 39.1833 148.236 39.1225 147.744 38.9978C147.274 38.8729 146.867 38.6837 146.524 38.43C145.023 37.2667 144.243 35.4266 144.183 32.9096L144.157 28.9737L141.79 29.2136L141.768 25.9177L144.134 25.6458L144.102 20.8779L148.098 20.307L148.131 25.1389L153.247 24.4965L153.259 26.3844C153.263 26.8537 153.105 27.2601 152.788 27.6036C152.491 27.947 152.109 28.1415 151.64 28.1874L148.154 28.5628L148.18 32.3707C148.184 32.9894 148.284 33.554 148.479 34.0647C148.674 34.5541 148.943 34.9256 149.287 35.1793C149.394 35.2426 149.543 35.2736 149.735 35.2723C150.076 35.27 150.524 35.203 151.078 35.0713C151.653 34.9181 152.143 34.7761 152.547 34.6454L153.338 38.1282Z" fill="#6500C3"/>
</g>
<defs>
<clipPath id="clip0_73_656">
<rect width="151" height="40" fill="white" transform="translate(24 10)"/>
</clipPath>
</defs>
</svg>
