<svg width="996" height="64" viewBox="0 0 996 64" fill="none" xmlns="http://www.w3.org/2000/svg">
<rect x="1" y="1" width="994" height="62" rx="23" fill="#DDD6FE" stroke="#0F172A" stroke-width="2"/>
<circle cx="425" cy="32" r="16" fill="#7C3AED"/>
<path d="M417 32.2857L422.818 38L433 28" stroke="#FEFCE8" stroke-width="4" stroke-linecap="round" stroke-linejoin="round"/>
<path d="M471.229 40.3V21.86H473.209V40.3H471.229ZM459.269 35.46V23.36H461.229V27.72H465.889V23.36H467.849V35.46H459.269ZM461.229 33.76H465.889V29.4H461.229V33.76ZM479.112 25.04V28.54H485.192V30.22H479.112V33.96H480.852C481.519 33.96 482.126 33.9533 482.672 33.94C483.219 33.9267 483.732 33.9067 484.212 33.88C484.706 33.84 485.186 33.8 485.652 33.76C486.132 33.7067 486.632 33.64 487.152 33.56L487.372 35.24C486.906 35.3067 486.432 35.3667 485.952 35.42C485.486 35.4733 484.972 35.52 484.412 35.56C483.866 35.5867 483.259 35.6133 482.592 35.64C481.939 35.6533 481.199 35.66 480.372 35.66H477.152V23.34H485.592V25.04H479.112ZM493.432 30.32H490.592V40.3H488.612V21.86H490.592V28.6H493.432V30.32ZM507.655 35.02V21.86H509.615V35.02H507.655ZM503.955 31.84H495.535V22.98H503.955V31.84ZM497.475 30.16H502.015V24.66H497.475V30.16ZM500.075 38.38H509.995V40.1H498.095V33.98H500.075V38.38ZM521.818 36.64C521.818 36.1467 521.952 35.6933 522.218 35.28C522.485 34.8667 522.865 34.5133 523.358 34.22C523.865 33.9133 524.472 33.68 525.178 33.52C525.898 33.3467 526.698 33.26 527.578 33.26C528.458 33.26 529.252 33.3467 529.958 33.52C530.665 33.6933 531.265 33.9333 531.758 34.24C532.265 34.5333 532.652 34.8867 532.918 35.3C533.198 35.7133 533.338 36.16 533.338 36.64V37.44C533.338 37.92 533.198 38.3667 532.918 38.78C532.652 39.1933 532.265 39.5467 531.758 39.84C531.265 40.1467 530.665 40.3867 529.958 40.56C529.252 40.7333 528.458 40.82 527.578 40.82C526.698 40.82 525.898 40.7333 525.178 40.56C524.472 40.4 523.865 40.1667 523.358 39.86C522.865 39.5667 522.485 39.2133 522.218 38.8C521.952 38.3867 521.818 37.9333 521.818 37.44V36.64ZM531.318 21.86H533.218V33.02H531.318V28.14H529.458V32.24H527.578V22.1H529.458V26.44H531.318V21.86ZM522.218 29.24C522.178 29.3867 522.052 29.5867 521.838 29.84C521.625 30.08 521.425 30.2933 521.238 30.48C520.972 30.76 520.612 31.1 520.158 31.5C519.718 31.8867 519.198 32.32 518.598 32.8L517.378 31.44C518.058 30.9333 518.638 30.4667 519.118 30.04C519.598 29.6133 519.978 29.2467 520.258 28.94C520.458 28.7267 520.618 28.5333 520.738 28.36C520.872 28.1733 520.972 27.9933 521.038 27.82C521.118 27.6333 521.172 27.4333 521.198 27.22C521.225 26.9933 521.238 26.7267 521.238 26.42V25.78H518.098V24.14H521.238V21.94H523.158V24.14H526.058V25.78H523.158V26.32C523.158 26.6 523.165 26.8467 523.178 27.06C523.205 27.2733 523.252 27.4733 523.318 27.66C523.398 27.8467 523.505 28.0333 523.638 28.22C523.772 28.3933 523.958 28.5933 524.198 28.82C524.545 29.1667 524.912 29.5067 525.298 29.84C525.698 30.1733 526.145 30.52 526.638 30.88L525.458 32.28C525.005 31.92 524.605 31.5933 524.258 31.3C523.925 30.9933 523.612 30.7067 523.318 30.44C523.052 30.2 522.818 29.98 522.618 29.78C522.418 29.5667 522.292 29.3867 522.238 29.24H522.218ZM531.398 36.78C531.398 36.54 531.305 36.3067 531.118 36.08C530.932 35.84 530.672 35.6333 530.338 35.46C530.005 35.2867 529.598 35.1467 529.118 35.04C528.652 34.9333 528.138 34.88 527.578 34.88C527.018 34.88 526.498 34.9333 526.018 35.04C525.552 35.1467 525.152 35.2867 524.818 35.46C524.485 35.6333 524.225 35.84 524.038 36.08C523.852 36.3067 523.758 36.54 523.758 36.78V37.28C523.758 37.5333 523.852 37.7733 524.038 38C524.225 38.2267 524.485 38.4267 524.818 38.6C525.152 38.7867 525.552 38.9333 526.018 39.04C526.498 39.1467 527.018 39.2 527.578 39.2C528.138 39.2 528.652 39.1467 529.118 39.04C529.598 38.9333 530.005 38.7933 530.338 38.62C530.672 38.4467 530.932 38.24 531.118 38C531.305 37.7733 531.398 37.54 531.398 37.3V36.78ZM549.102 40.3V32.74H545.102V31H549.102V27.86H544.942C544.928 28.3667 544.888 28.8333 544.822 29.26C544.755 29.6867 544.628 30.1 544.442 30.5C544.255 30.8867 543.988 31.28 543.642 31.68C543.308 32.0667 542.862 32.4867 542.302 32.94C541.755 33.3933 541.075 33.8933 540.262 34.44C539.462 34.9733 538.502 35.58 537.382 36.26L536.342 34.68C537.408 34.0533 538.315 33.4933 539.062 33C539.808 32.5067 540.428 32.06 540.922 31.66C541.415 31.2467 541.802 30.8667 542.082 30.52C542.362 30.16 542.568 29.8067 542.702 29.46C542.835 29.1 542.915 28.7333 542.942 28.36C542.982 27.9733 543.002 27.54 543.002 27.06V25.28H536.702V23.58H544.962V26.12H549.102V21.86H551.082V40.3H549.102ZM572.385 32.56V27.86H568.505V31.26H560.085V22.88H568.505V26.16H572.385V21.86H574.345V32.56H572.385ZM562.205 33.52H574.345V40.48H572.365V35.22H562.205V33.52ZM562.025 29.58H566.565V24.56H562.025V29.58ZM577.928 34.7C578.994 34.0733 579.894 33.52 580.628 33.04C581.374 32.5467 581.994 32.1 582.488 31.7C582.981 31.2867 583.368 30.9067 583.648 30.56C583.928 30.2 584.134 29.8467 584.268 29.5C584.414 29.14 584.501 28.7667 584.528 28.38C584.568 27.9933 584.588 27.56 584.588 27.08V25.26H578.288V23.56H586.548V27.1C586.548 27.7 586.528 28.2467 586.488 28.74C586.461 29.22 586.368 29.68 586.208 30.12C586.048 30.5467 585.808 30.9733 585.488 31.4C585.181 31.8133 584.741 32.26 584.168 32.74C583.608 33.22 582.901 33.7467 582.048 34.32C581.208 34.8933 580.181 35.5467 578.968 36.28L577.928 34.7ZM590.448 40.3V21.86H592.428V40.3H590.448Z" fill="#0F172A"/>
<path d="M457.289 39.5H594.708V40.5H457.289V39.5Z" fill="#0F172A"/>
</svg>
