<svg width="996" height="64" viewBox="0 0 996 64" fill="none" xmlns="http://www.w3.org/2000/svg">
<rect x="1" y="1" width="994" height="62" rx="23" fill="white" stroke="#0F172A" stroke-width="2"/>
<circle cx="421.5" cy="32" r="15" fill="#FEFCE8" stroke="#0F172A" stroke-width="2"/>
<path d="M467.729 40.3V21.86H469.709V40.3H467.729ZM455.769 35.46V23.36H457.729V27.72H462.389V23.36H464.349V35.46H455.769ZM457.729 33.76H462.389V29.4H457.729V33.76ZM475.612 25.04V28.54H481.692V30.22H475.612V33.96H477.352C478.019 33.96 478.626 33.9533 479.172 33.94C479.719 33.9267 480.232 33.9067 480.712 33.88C481.206 33.84 481.686 33.8 482.152 33.76C482.632 33.7067 483.132 33.64 483.652 33.56L483.872 35.24C483.406 35.3067 482.932 35.3667 482.452 35.42C481.986 35.4733 481.472 35.52 480.912 35.56C480.366 35.5867 479.759 35.6133 479.092 35.64C478.439 35.6533 477.699 35.66 476.872 35.66H473.652V23.34H482.092V25.04H475.612ZM489.932 30.32H487.092V40.3H485.112V21.86H487.092V28.6H489.932V30.32ZM504.155 35.02V21.86H506.115V35.02H504.155ZM500.455 31.84H492.035V22.98H500.455V31.84ZM493.975 30.16H498.515V24.66H493.975V30.16ZM496.575 38.38H506.495V40.1H494.595V33.98H496.575V38.38ZM518.318 36.64C518.318 36.1467 518.452 35.6933 518.718 35.28C518.985 34.8667 519.365 34.5133 519.858 34.22C520.365 33.9133 520.972 33.68 521.678 33.52C522.398 33.3467 523.198 33.26 524.078 33.26C524.958 33.26 525.752 33.3467 526.458 33.52C527.165 33.6933 527.765 33.9333 528.258 34.24C528.765 34.5333 529.152 34.8867 529.418 35.3C529.698 35.7133 529.838 36.16 529.838 36.64V37.44C529.838 37.92 529.698 38.3667 529.418 38.78C529.152 39.1933 528.765 39.5467 528.258 39.84C527.765 40.1467 527.165 40.3867 526.458 40.56C525.752 40.7333 524.958 40.82 524.078 40.82C523.198 40.82 522.398 40.7333 521.678 40.56C520.972 40.4 520.365 40.1667 519.858 39.86C519.365 39.5667 518.985 39.2133 518.718 38.8C518.452 38.3867 518.318 37.9333 518.318 37.44V36.64ZM527.818 21.86H529.718V33.02H527.818V28.14H525.958V32.24H524.078V22.1H525.958V26.44H527.818V21.86ZM518.718 29.24C518.678 29.3867 518.552 29.5867 518.338 29.84C518.125 30.08 517.925 30.2933 517.738 30.48C517.472 30.76 517.112 31.1 516.658 31.5C516.218 31.8867 515.698 32.32 515.098 32.8L513.878 31.44C514.558 30.9333 515.138 30.4667 515.618 30.04C516.098 29.6133 516.478 29.2467 516.758 28.94C516.958 28.7267 517.118 28.5333 517.238 28.36C517.372 28.1733 517.472 27.9933 517.538 27.82C517.618 27.6333 517.672 27.4333 517.698 27.22C517.725 26.9933 517.738 26.7267 517.738 26.42V25.78H514.598V24.14H517.738V21.94H519.658V24.14H522.558V25.78H519.658V26.32C519.658 26.6 519.665 26.8467 519.678 27.06C519.705 27.2733 519.752 27.4733 519.818 27.66C519.898 27.8467 520.005 28.0333 520.138 28.22C520.272 28.3933 520.458 28.5933 520.698 28.82C521.045 29.1667 521.412 29.5067 521.798 29.84C522.198 30.1733 522.645 30.52 523.138 30.88L521.958 32.28C521.505 31.92 521.105 31.5933 520.758 31.3C520.425 30.9933 520.112 30.7067 519.818 30.44C519.552 30.2 519.318 29.98 519.118 29.78C518.918 29.5667 518.792 29.3867 518.738 29.24H518.718ZM527.898 36.78C527.898 36.54 527.805 36.3067 527.618 36.08C527.432 35.84 527.172 35.6333 526.838 35.46C526.505 35.2867 526.098 35.1467 525.618 35.04C525.152 34.9333 524.638 34.88 524.078 34.88C523.518 34.88 522.998 34.9333 522.518 35.04C522.052 35.1467 521.652 35.2867 521.318 35.46C520.985 35.6333 520.725 35.84 520.538 36.08C520.352 36.3067 520.258 36.54 520.258 36.78V37.28C520.258 37.5333 520.352 37.7733 520.538 38C520.725 38.2267 520.985 38.4267 521.318 38.6C521.652 38.7867 522.052 38.9333 522.518 39.04C522.998 39.1467 523.518 39.2 524.078 39.2C524.638 39.2 525.152 39.1467 525.618 39.04C526.098 38.9333 526.505 38.7933 526.838 38.62C527.172 38.4467 527.432 38.24 527.618 38C527.805 37.7733 527.898 37.54 527.898 37.3V36.78ZM545.602 40.3V32.74H541.602V31H545.602V27.86H541.442C541.428 28.3667 541.388 28.8333 541.322 29.26C541.255 29.6867 541.128 30.1 540.942 30.5C540.755 30.8867 540.488 31.28 540.142 31.68C539.808 32.0667 539.362 32.4867 538.802 32.94C538.255 33.3933 537.575 33.8933 536.762 34.44C535.962 34.9733 535.002 35.58 533.882 36.26L532.842 34.68C533.908 34.0533 534.815 33.4933 535.562 33C536.308 32.5067 536.928 32.06 537.422 31.66C537.915 31.2467 538.302 30.8667 538.582 30.52C538.862 30.16 539.068 29.8067 539.202 29.46C539.335 29.1 539.415 28.7333 539.442 28.36C539.482 27.9733 539.502 27.54 539.502 27.06V25.28H533.202V23.58H541.462V26.12H545.602V21.86H547.582V40.3H545.602ZM568.885 32.56V27.86H565.005V31.26H556.585V22.88H565.005V26.16H568.885V21.86H570.845V32.56H568.885ZM558.705 33.52H570.845V40.48H568.865V35.22H558.705V33.52ZM558.525 29.58H563.065V24.56H558.525V29.58ZM574.428 34.7C575.494 34.0733 576.394 33.52 577.128 33.04C577.874 32.5467 578.494 32.1 578.988 31.7C579.481 31.2867 579.868 30.9067 580.148 30.56C580.428 30.2 580.634 29.8467 580.768 29.5C580.914 29.14 581.001 28.7667 581.028 28.38C581.068 27.9933 581.088 27.56 581.088 27.08V25.26H574.788V23.56H583.048V27.1C583.048 27.7 583.028 28.2467 582.988 28.74C582.961 29.22 582.868 29.68 582.708 30.12C582.548 30.5467 582.308 30.9733 581.988 31.4C581.681 31.8133 581.241 32.26 580.668 32.74C580.108 33.22 579.401 33.7467 578.548 34.32C577.708 34.8933 576.681 35.5467 575.468 36.28L574.428 34.7ZM586.948 40.3V21.86H588.928V40.3H586.948Z" fill="#0F172A"/>
<path d="M453.789 39.5H591.208V40.5H453.789V39.5Z" fill="#0F172A"/>
</svg>
